<?xml version="1.0" encoding="UTF-8"?><svg id="Layer_1" xmlns="http://www.w3.org/2000/svg" viewBox="0 0 255 255"><defs><style>.cls-1{fill:#fff;}</style></defs><path class="cls-1" d="m41.23,7.22h0c-6.73,3.88-9.03,12.48-5.15,19.21l65.04,112.65c1.38,2.39,4.44,3.21,6.83,1.83l15.7-9.06c2.39-1.38,3.21-4.44,1.83-6.83L60.44,12.37c-3.88-6.73-12.48-9.03-19.21-5.15Z"/><path class="cls-1" d="m108.76,147.96l24.69,22.48c1.41,1.28,3.43.12,3.02-1.75l-7.12-32.62c-.3-1.36-1.76-2.12-2.87-1.48l-17.58,10.15c-1.1.64-1.18,2.29-.15,3.22Z"/><path class="cls-1" d="m245,255H10c-5.52,0-10-4.48-10-10v-108c0-5.52,4.48-10,10-10s10,4.48,10,10v98h215V20h-98c-5.52,0-10-4.48-10-10s4.48-10,10-10h108c5.52,0,10,4.48,10,10v235c0,5.52-4.48,10-10,10Z"/></svg>